<svg id="Layer_1" data-name="Layer 1" xmlns="http://www.w3.org/2000/svg" viewBox="0 0 360 100"><title>Logo</title><path d="M156.37,79.63a7.82,7.82,0,0,1-3.21.57c-3.42,0-6-2.16-6-6.13a6,6,0,0,1,6.34-6.37,6.52,6.52,0,0,1,2.88.54L156,69.52a5.72,5.72,0,0,0-2.45-.5c-2.84,0-4.74,1.82-4.74,5,0,3,1.71,4.88,4.66,4.88a6.31,6.31,0,0,0,2.56-.5Z" style="fill:#fff"/><path d="M175.49,74c0-1,0-1.91-.07-2.72h1.38l.06,1.71h.07a2.62,2.62,0,0,1,2.41-1.91,1.64,1.64,0,0,1,.45.06v1.49a2.29,2.29,0,0,0-.54-.06,2.22,2.22,0,0,0-2.12,2,4.46,4.46,0,0,0-.07.74V80h-1.56Z" style="fill:#fff"/><path d="M199.34,76a2.8,2.8,0,0,0,3,3,5.71,5.71,0,0,0,2.41-.45l.27,1.14a7,7,0,0,1-2.9.54,4,4,0,0,1-4.28-4.39c0-2.63,1.55-4.7,4.09-4.7,2.84,0,3.6,2.51,3.6,4.1a6.16,6.16,0,0,1-.05.74ZM204,74.83a2.26,2.26,0,0,0-2.2-2.57,2.62,2.62,0,0,0-2.43,2.57Z" style="fill:#fff"/><path d="M229.57,80l-.12-1.1h-.06a3.24,3.24,0,0,1-2.66,1.3,2.48,2.48,0,0,1-2.66-2.5c0-2.1,1.87-3.26,5.23-3.24v-.18a1.8,1.8,0,0,0-2-2,4.32,4.32,0,0,0-2.27.65l-.36-1a5.45,5.45,0,0,1,2.86-.77c2.66,0,3.31,1.82,3.31,3.57v3.26A12.71,12.71,0,0,0,231,80Zm-.23-4.45c-1.73,0-3.69.27-3.69,2a1.4,1.4,0,0,0,1.49,1.51,2.17,2.17,0,0,0,2.11-1.46,1.75,1.75,0,0,0,.09-.51Z" style="fill:#fff"/><path d="M252.53,68.82v2.5h2.27v1.2h-2.27v4.7c0,1.08.3,1.69,1.19,1.69a3.35,3.35,0,0,0,.91-.11l.07,1.19a3.84,3.84,0,0,1-1.4.21,2.19,2.19,0,0,1-1.71-.67,3.22,3.22,0,0,1-.61-2.26V72.52h-1.35v-1.2H251V69.23Z" style="fill:#fff"/><path d="M275.61,68.87a1,1,0,0,1-2,0,1,1,0,0,1,1-1A.94.94,0,0,1,275.61,68.87ZM273.85,80V71.32h1.58V80Z" style="fill:#fff"/><path d="M303.22,75.6a4.26,4.26,0,0,1-4.34,4.62,4.14,4.14,0,0,1-4.17-4.48c0-2.92,1.91-4.63,4.32-4.63S303.22,72.94,303.22,75.6Zm-6.91.09c0,1.91,1.1,3.35,2.64,3.35s2.65-1.42,2.65-3.38c0-1.47-.74-3.35-2.61-3.35S296.31,74,296.31,75.69Z" style="fill:#fff"/><path d="M322.49,73.68c0-.9,0-1.64-.08-2.36h1.41l.09,1.44h0a3.21,3.21,0,0,1,2.88-1.64c1.21,0,3.08.72,3.08,3.71V80h-1.59V75c0-1.4-.52-2.57-2-2.57a2.25,2.25,0,0,0-2.13,1.62,2.33,2.33,0,0,0-.1.74V80h-1.58Z" style="fill:#fff"/><line x1="144.07" y1="63.25" x2="333" y2="63.25" style="fill:none;stroke:#fff;stroke-miterlimit:10;stroke-width:0.748559156117062px"/><line x1="144.07" y1="87.34" x2="333" y2="87.34" style="fill:none;stroke:#fff;stroke-miterlimit:10;stroke-width:0.748559156117062px"/><path d="M174.72,45.51V19.76h3.48V45.51A5.13,5.13,0,0,1,173,50.65H152.45a5.13,5.13,0,0,1-5.15-5.15V19.76h3.47V45.51a1.7,1.7,0,0,0,1.68,1.67H173a1.69,1.69,0,0,0,1.67-1.67Z" style="fill:#fff"/><path d="M210.33,46.71V19.76h3.48V50.65H209L186.39,23.71V50.65h-3.48V19.76h4.76Z" style="fill:#fff"/><path d="M218.65,50.65V19.76h3.48V50.65Z" style="fill:#fff"/><path d="M258.67,47.18h4.21v3.47H233.11A5.12,5.12,0,0,1,228,45.51V24.91a5.12,5.12,0,0,1,5.15-5.15H253.7a5.12,5.12,0,0,1,5.14,5.15V45.51A15.81,15.81,0,0,1,258.67,47.18Zm-25.57,0H253.7a1.68,1.68,0,0,0,1.67-1.67V24.91a1.68,1.68,0,0,0-1.67-1.67H233.11a1.68,1.68,0,0,0-1.67,1.67V45.51a1.69,1.69,0,0,0,1.67,1.67Z" style="fill:#fff"/><path d="M293.3,45.51V19.76h3.47V45.51a5.13,5.13,0,0,1-5.15,5.15H271a5.13,5.13,0,0,1-5.15-5.15V19.76h3.47V45.51a1.59,1.59,0,0,0,.5,1.18,1.57,1.57,0,0,0,1.18.49h20.59a1.7,1.7,0,0,0,1.68-1.67Z" style="fill:#fff"/><path d="M329.77,19.76v3.48H305.05V33.45h19.86V37H305.05V47.18h24.72v3.47H301.58V19.76Z" style="fill:#fff"/><polygon points="121.27 27.63 117.77 38.49 133.35 36.64 121.27 27.63" style="fill:#fff"/><polygon points="83.97 12.98 56.27 88.9 105.03 75.11 83.97 12.98" style="fill:#fff"/><polygon points="120.67 27.08 94.42 40.61 105.63 73.68 120.67 27.08" style="fill:#fff"/><polygon points="70.08 53.08 69.67 53.29 69.94 53.46 70.08 53.08" style="fill:#fff"/><polygon points="104.98 75.08 105.03 75.11 105.05 75.06 104.98 75.08" style="fill:#fff"/><polygon points="62.14 69.77 34.7 66.25 55.47 88.04 62.14 69.77" style="fill:#fff"/><polygon points="34.17 66.88 27 83.75 42.41 75.52 34.17 66.88" style="fill:#fff"/><polygon points="82.77 12.92 47.88 11.1 73.12 39.37 82.77 12.92" style="fill:#fff"/></svg>